<?xml version="1.0" encoding="iso-8859-1"?>
<!-- Generator: Adobe Illustrator 16.0.0, SVG Export Plug-In . SVG Version: 6.00 Build 0)  -->
<!DOCTYPE svg PUBLIC "-//W3C//DTD SVG 1.1//EN" "http://www.w3.org/Graphics/SVG/1.1/DTD/svg11.dtd">
<svg version="1.1" id="Capa_1" xmlns="http://www.w3.org/2000/svg" xmlns:xlink="http://www.w3.org/1999/xlink" x="0px" y="0px"
	 width="32px" height="32px" viewBox="0 0 32 32" style="enable-background:new 0 0 32 32;" xml:space="preserve">
<g>
	<g>
		<path d="M17.479,22.863c0,0-0.555,0.479-1.155,0.479c-0.601,0-1.157-0.479-1.157-0.479v4.309L9.454,32h6.697h0.346h6.697
			l-5.713-4.828L17.479,22.863L17.479,22.863z"/>
		<ellipse cx="16.324" cy="18.902" rx="1.366" ry="1.284"/>
		<ellipse cx="16.223" cy="21.478" rx="1.368" ry="1.284"/>
		<circle cx="16.278" cy="1.154" r="1.154"/>
		<path d="M17.524,2.308c0,0-0.463,0.61-1.247,0.61c-0.785,0-1.284-0.61-1.284-0.61v3.307h2.529L17.524,2.308L17.524,2.308z"/>
		<path d="M17.487,17.618v-6.87c0,0-0.664-0.665-1.265-0.665s-1.265,0.573-1.265,0.573v6.962c0,0,0.72-0.535,1.33-0.535
			C16.897,17.083,17.487,17.618,17.487,17.618z"/>
		<path d="M8.013,7.996c0,0,2.409,3.299,3.425,3.392c0.932,0.084,3.812-2.103,4.852-2.516c1.041,0.413,4.091,2.642,5.023,2.558
			c1.016-0.093,3.268-3.285,3.268-3.285s1.279,1.053,1.594,0.738c0.314-0.315-1.107-2.216-1.551-2.216s-2.992,1.81-3.51,1.81
			c-1.117,0-3.699-2.122-4.683-2.355c-0.036-0.012-0.244-0.012-0.28,0c-0.983,0.233-3.566,2.355-4.683,2.355
			c-0.517,0-3.14-1.902-3.583-1.902c-0.443,0-1.791,1.994-1.478,2.309C6.72,9.197,8.013,7.996,8.013,7.996z"/>
		<polygon points="0.829,21.146 7.533,27.646 14.237,21.146 		"/>
		<polygon points="7.44,11.099 7.44,20.193 8.327,20.193 8.327,11.166 13.856,20.413 14.907,20.43 7.893,8.712 0.953,20.438 
			1.948,20.438 		"/>
		<polygon points="24.399,27.818 31.104,21.316 17.696,21.316 		"/>
		<polygon points="25.196,20.367 25.196,11.338 30.128,20.575 31.171,20.593 24.76,8.884 17.375,20.604 18.44,20.604 24.307,11.271 
			24.307,20.367 		"/>
	</g>
</g>
<g>
</g>
<g>
</g>
<g>
</g>
<g>
</g>
<g>
</g>
<g>
</g>
<g>
</g>
<g>
</g>
<g>
</g>
<g>
</g>
<g>
</g>
<g>
</g>
<g>
</g>
<g>
</g>
<g>
</g>
</svg>
