<?xml version="1.0" encoding="iso-8859-1"?>
<!-- Generator: Adobe Illustrator 16.0.0, SVG Export Plug-In . SVG Version: 6.00 Build 0)  -->
<!DOCTYPE svg PUBLIC "-//W3C//DTD SVG 1.1//EN" "http://www.w3.org/Graphics/SVG/1.1/DTD/svg11.dtd">
<svg version="1.1" id="Capa_1" xmlns="http://www.w3.org/2000/svg" xmlns:xlink="http://www.w3.org/1999/xlink" x="0px" y="0px"
	 width="32px" height="32px" viewBox="0 0 32 32" style="enable-background:new 0 0 32 32;" xml:space="preserve">
<g>
	<g>
		<path d="M7.834,17.638c0.201-0.047,0.404-0.081,0.613-0.103c0.412-0.054,0.834-0.052,1.256-0.039l0.535,0.017l0.045-0.547
			c0.011-0.132,0.057-0.332,0.129-0.519c0.07-0.19,0.161-0.384,0.266-0.569c0.21-0.373,0.471-0.725,0.77-1.029
			c0.581-0.625,1.339-1.053,2.139-1.055h0.342l0.098-0.281c0.13-0.373,0.412-0.697,0.797-0.938c0.382-0.244,0.84-0.418,1.316-0.537
			c0.958-0.247,1.983-0.324,3.012-0.34c-1.004-0.246-2.053-0.332-3.114-0.226c-0.53,0.064-1.068,0.185-1.587,0.434
			c-0.422,0.208-0.82,0.544-1.098,0.979c-0.466,0.006-0.928,0.116-1.345,0.302c-0.499,0.225-0.938,0.543-1.317,0.907
			c-0.375,0.37-0.694,0.785-0.96,1.238c-0.133,0.228-0.251,0.464-0.352,0.719c-0.042,0.11-0.079,0.224-0.113,0.34
			c-0.799,0.019-1.607,0.133-2.374,0.411c-0.915,0.351-1.761,0.904-2.394,1.639c-0.651,0.716-1.096,1.572-1.402,2.447
			c-0.291,0.884-0.463,1.799-0.445,2.709c0.221-0.879,0.532-1.721,0.941-2.496c0.402-0.778,0.908-1.489,1.523-2.062
			c0.615-0.569,1.333-1.001,2.119-1.246C7.437,17.741,7.629,17.674,7.834,17.638z"/>
		<path d="M4.457,17.181c0.594-0.395,1.233-0.696,1.916-0.863c0.683-0.165,1.391-0.237,2.107-0.196l0.508,0.028l0.07-0.561
			c0.012-0.092,0.053-0.258,0.116-0.414c0.065-0.16,0.15-0.321,0.244-0.48c0.191-0.317,0.427-0.618,0.692-0.876
			c0.26-0.265,0.55-0.494,0.861-0.656c0.079-0.037,0.156-0.086,0.238-0.109c0.081-0.023,0.16-0.067,0.243-0.081
			c0.165-0.044,0.33-0.062,0.499-0.074l0.363-0.033l0.075-0.249c0.163-0.548,0.652-0.958,1.295-1.169
			c0.639-0.224,1.365-0.281,2.097-0.28c-0.691-0.261-1.445-0.373-2.225-0.28c-0.389,0.056-0.787,0.175-1.154,0.402
			c-0.273,0.176-0.514,0.421-0.694,0.703c-0.157,0.003-0.313,0.014-0.466,0.047c-0.125,0.016-0.238,0.063-0.357,0.094
			c-0.121,0.031-0.229,0.085-0.341,0.132c-0.442,0.198-0.833,0.473-1.177,0.785c-0.339,0.319-0.631,0.678-0.881,1.071
			c-0.123,0.197-0.236,0.404-0.334,0.629c-0.033,0.088-0.068,0.174-0.098,0.265c-0.252,0.006-0.504,0.018-0.756,0.049
			c-0.409,0.043-0.817,0.128-1.214,0.25c-0.788,0.255-1.538,0.649-2.157,1.19c-0.623,0.535-1.119,1.189-1.493,1.892
			c-0.361,0.707-0.628,1.458-0.714,2.229C2.356,19.221,3.287,17.997,4.457,17.181z"/>
		<path d="M1.625,16.966c-0.29,0.697-0.469,1.435-0.46,2.17c0.459-1.378,1.251-2.602,2.334-3.366
			c0.545-0.374,1.146-0.65,1.789-0.792c0.32-0.071,0.648-0.129,0.98-0.153c0.332-0.029,0.67-0.025,1.008-0.013l0.502,0.02
			l0.077-0.552c0.007-0.045,0.054-0.244,0.121-0.39c0.063-0.155,0.149-0.311,0.239-0.461c0.185-0.298,0.416-0.566,0.682-0.785
			c0.133-0.108,0.266-0.221,0.417-0.301c0.144-0.095,0.304-0.155,0.462-0.223c0.164-0.051,0.328-0.104,0.503-0.125
			c0.171-0.042,0.352-0.03,0.528-0.053l0.365-0.047l0.066-0.217c0.119-0.392,0.624-0.699,1.201-0.852
			c0.577-0.167,1.211-0.229,1.854-0.269c-0.612-0.222-1.265-0.322-1.945-0.3c-0.339,0.021-0.69,0.078-1.041,0.228
			c-0.257,0.11-0.515,0.296-0.712,0.541c-0.146-0.006-0.291-0.009-0.438,0.016c-0.232,0.018-0.459,0.069-0.688,0.129
			c-0.222,0.073-0.447,0.148-0.652,0.265C8.71,11.487,8.606,11.542,8.51,11.61c-0.098,0.065-0.202,0.123-0.289,0.202
			c-0.168,0.134-0.322,0.282-0.468,0.438c-1.434-0.468-7.267-2.62-4.522-5.922c3.115-3.751,6.716-3.509,6.716-3.509
			s2.417,1.905,3.253,1.371c-1.719-1.396-0.465-1.559-0.465-1.559s1.441-0.093,2.813,1.418c0.209-1.372-2.811-2.923-3.369-2.998
			c-0.559-0.075-1.302-0.372-2.348,0.487c-1.836-0.533-6.646,0.86-9.063,4.16c-2.526,4.611,1.844,7.64,3.468,8.565
			c-0.464,0.216-0.902,0.485-1.277,0.83C2.372,15.62,1.926,16.275,1.625,16.966z"/>
		<path d="M29.208,11.884c-1.828-1.006-2.896-0.371-3.98,0.142c-0.312,0.091-3.349-0.56-5.223-0.235
			c-1.812,0.313-5.645,1.983-5.896,2.093c-0.003,0.002-0.008,0.004-0.011,0.006c-0.003,0-0.014,0.006-0.014,0.006h0.001
			c-0.561,0.244-3.313,1.906-3.251,3.563c-0.148,0.128-0.343,0.283-0.518,0.425c-1.372,1.103-3.67,2.944-3.226,5.17
			c0.565,2.832,3.848,4.254,3.987,4.312c0,0-0.062,2.621,4.116,3.536c4.524,0.991,7.313-3.066,7.313-3.066s-5.795,2.633-6.631,0.773
			c-0.435-0.868,3.037-1.581,2.85-2.2c-1.521-0.521-3.904,0.094-3.842,0.527c-0.372-1.24-3.191-0.961-3.191-0.961
			s-2.736-1.179-3.145-3.214c-0.268-1.34,1.59-2.829,2.699-3.719c0.554-0.444,0.878-0.714,1.049-0.998
			c0.709,0.166,1.393,0.27,1.516,0.294c0.001-0.005,0.002-0.011,0.004-0.016c0.151,0.438,0.549,0.781,1.35,0.904
			c1.789,0.162,2.114-0.849,2.276-0.675c1.568,2.127,4.812,0.373,4.812,0.373s-3.938-0.432-3.403-2.127
			c0.532-1.696,2.894-1.092,3.403-0.709c0.371-1.545-3.567-1.532-3.637-1.08c-0.924-1.062-1.801-1.133-2.577-0.72
			c-0.123-0.038-0.266-0.079-0.423-0.121c0.62-0.263,2.638-1.079,4.523-1.401c2.262-0.389,5.438,0.604,5.424,1.283
			c-0.016,0.68,1.969,2.248,3.422,2.142c-1.146-1.209-1.314-2.078-0.711-2.42c0.604-0.341,2.772,0.822,3.688,2.42
			C32.228,15,31.036,12.893,29.208,11.884z"/>
	</g>
</g>
<g>
</g>
<g>
</g>
<g>
</g>
<g>
</g>
<g>
</g>
<g>
</g>
<g>
</g>
<g>
</g>
<g>
</g>
<g>
</g>
<g>
</g>
<g>
</g>
<g>
</g>
<g>
</g>
<g>
</g>
</svg>
